<?xml version="1.0" encoding="UTF-8"?><svg id="Capa_1" xmlns="http://www.w3.org/2000/svg" viewBox="0 0 85.52 85.6"><defs><style>.cls-1{fill:none;}.cls-1,.cls-2{stroke-width:0px;}.cls-2{fill:#1a1a24;}</style></defs><path class="cls-1" d="m15.93,56.5c.2-2-.6-4-2.1-5.3l-8.3-7.2c.3,8.9,3.7,17,9.2,23.3l1.2-10.8Z"/><path class="cls-1" d="m56.53,69.6h-.6c-1.8,0-3.5.8-4.7,2.1l-7.2,8.3c8.9-.3,17-3.7,23.3-9.2l-10.8-1.2Z"/><path class="cls-1" d="m29.03,15.9h.6c1.8,0,3.5-.8,4.7-2.1l7.1-8.2c-8.9.3-17,3.7-23.3,9.2l10.9,1.1Z"/><path class="cls-1" d="m69.63,29c-.2,2,.6,4,2.1,5.3l8.2,7.1c-.3-8.9-3.7-17-9.2-23.3l-1.1,10.9Z"/><path class="cls-2" d="m41.93,5.1l1.9-2.2c.8-.9.2-2.3-1-2.3h0c-11.2-.1-21.4,4.3-29,11.4-.9.8-.4,2.3.8,2.4l2.9.3c.4,0,.8-.1,1.1-.3,6.1-5.2,13.8-8.4,22.3-8.8.4-.1.7-.2,1-.5Z"/><path class="cls-2" d="m43.63,80.4l-2,2.3c-.8.9-.2,2.3,1,2.3h0c11.2,0,21.4-4.4,28.9-11.5.9-.8.4-2.3-.8-2.4l-2.9-.3c-.4,0-.8.1-1.1.3-6.1,5.1-13.8,8.4-22.2,8.8-.3.1-.6.2-.9.5Z"/><path class="cls-2" d="m80.43,41.9l2.3,2c.9.8,2.3.2,2.3-1h0c0-11.2-4.4-21.4-11.5-28.9-.8-.9-2.3-.4-2.4.8l-.3,2.9c0,.4.1.8.3,1.1,5.1,6.1,8.4,13.8,8.8,22.2.1.2.2.6.5.9Z"/><path class="cls-2" d="m5.13,43.6l-2.2-1.9c-.9-.8-2.3-.2-2.3,1h0c0,11.2,4.4,21.4,11.5,28.9.8.9,2.3.4,2.4-.8l.3-2.9c0-.4-.1-.8-.3-1.1-5.3-6-8.5-13.7-8.9-22.2-.1-.4-.2-.7-.5-1Z"/><path class="cls-2" d="m84.33,57.1l-18.5-16c-3.7-3.2-5.7-8.1-5.2-13l2.5-24.3c.3-2.2-1.5-3.8-3.4-3.8-.9,0-1.9.4-2.6,1.2l-16,18.5c-2.9,3.4-7.1,5.2-11.5,5.2-.5,0-1,0-1.6-.1l-24.2-2.5h-.4c-3.1,0-4.7,3.9-2.2,6.1l18.5,16c3.7,3.2,5.7,8.1,5.2,13.1l-2.5,24.3c-.2,2.3,1.6,3.8,3.5,3.8.9,0,1.9-.4,2.6-1.2l16-18.5c2.9-3.4,7.1-5.3,11.5-5.3.5,0,1,0,1.6.1l24.3,2.5h.4c2.9,0,4.4-4,2-6.1Zm-41.6-4.2c-5.6,0-10.2-4.6-10.2-10.2s4.6-10.2,10.2-10.2,10.2,4.6,10.2,10.2-4.5,10.2-10.2,10.2Z"/></svg>