<?xml version="1.0" encoding="utf-8"?>
<!-- Generator: Adobe Illustrator 27.9.0, SVG Export Plug-In . SVG Version: 6.00 Build 0)  -->
<svg version="1.1" id="Layer_1" xmlns="http://www.w3.org/2000/svg" xmlns:xlink="http://www.w3.org/1999/xlink" x="0px" y="0px"
	 viewBox="0 0 435.6 85.5" style="enable-background:new 0 0 435.6 85.5;" xml:space="preserve">
<style type="text/css">
	.st0{fill:#FFFFFF;}
	.st1{fill:#BD71FF;}
	.st2{fill:none;}
	.st3{fill:#AE2EFF;}
</style>
<g>
	<g>
		<g>
			<path class="st0" d="M121.4,20.2h5.8c2.6,0,4.5,0.6,5.8,1.8c1.3,1.2,2,2.9,2,5.2v4c0,2.3-0.7,4.1-2,5.3c-1.3,1.2-3.3,1.8-5.8,1.7
				L115.6,38v-4.9h13c0.4,0,0.6-0.2,0.6-0.7V26c0-0.4-0.2-0.7-0.6-0.7h-5.8c-2.6,0-4.5-0.6-5.8-1.8c-1.3-1.2-2-2.9-2-5.2v-3.8
				c0-2.3,0.7-4,2-5.3c1.3-1.2,3.3-1.8,5.8-1.8L134,7.6v4.9h-12.6c-0.4,0-0.6,0.2-0.6,0.7v6.4C120.7,20,120.9,20.2,121.4,20.2z"/>
			<path class="st0" d="M149.9,38h-5.6V11.7l0.8,0.8h-8V7.6h20.1v4.9h-8l0.8-0.8V38z"/>
			<path class="st0" d="M182.8,38h-5.6l-1.7-7.8l0.6,0.5h-12l0.6-0.5l-1.9,7.8h-5.3l6.7-25.4c0.4-1.4,0.8-2.4,1.2-3.2
				c0.4-0.8,1-1.3,1.8-1.6c0.8-0.3,1.8-0.4,3.2-0.4l5.7,0.2L182.8,38z M168.9,13l-3.4,13.3l-0.4-0.5h9.9l-0.4,0.5l-3.1-13.9h-2.1
				c-0.2,0-0.3,0-0.4,0.1C169.1,12.7,169,12.8,168.9,13z"/>
			<path class="st0" d="M193.6,38H188V7.6l12.9-0.2c2.6-0.1,4.5,0.5,5.8,1.7c1.3,1.2,2,3,2,5.3v4.8c0,1.9-0.5,3.4-1.5,4.6
				c-1,1.2-2.5,2-4.4,2.3v-1.1c1,0.2,1.8,0.6,2.3,1.1c0.6,0.6,1.1,1.5,1.5,2.6l3.2,9.1h-5.7l-3.6-10.9c-0.1-0.3-0.2-0.4-0.3-0.6
				c-0.1-0.1-0.3-0.2-0.6-0.2h-6.9l0.9-0.9V38z M193.6,11.4v11.1l-0.8-0.9h9.4c0.4,0,0.7-0.2,0.7-0.6v-8c0-0.4-0.2-0.6-0.7-0.6h-9.4
				L193.6,11.4z"/>
			<path class="st0" d="M221.6,38H216V7.6h5.6V38z M227.3,25.2h-6.8v-3h6.8c1.5,0,2.6,0.1,3.4,0.4c0.8,0.3,1.4,0.7,1.9,1.4
				c0.5,0.7,1,1.7,1.7,2.9l5.3,11.1h-6l-5.7-12.3c-0.1-0.2-0.1-0.4-0.2-0.5C227.6,25.2,227.5,25.2,227.3,25.2z M227,23.2h-6.4v-3
				h6.6c0.2,0,0.4,0,0.4-0.1c0.1-0.1,0.1-0.2,0.2-0.4l5-12h5.7l-4.6,10.9c-0.4,1-0.8,1.8-1.1,2.4c-0.4,0.6-0.8,1.1-1.2,1.5
				c-0.4,0.3-1,0.6-1.7,0.7C229.1,23.2,228.1,23.2,227,23.2z"/>
			<path class="st0" d="M271.6,33V38h-10.1c-2.5,0-4.4-0.5-5.6-1.6c-1.2-1.1-1.8-2.8-1.8-5V14.3c0-2.3,0.6-3.9,1.8-5
				c1.2-1.1,3.1-1.6,5.6-1.6h10.1v5.1h-11.3c-0.4,0-0.6,0.2-0.6,0.6v19.1c0,0.4,0.2,0.6,0.6,0.6H271.6z"/>
			<path class="st0" d="M276.6,31.8V13.9c0-2.3,0.6-4,1.8-5.1c1.2-1.1,3.1-1.6,5.6-1.6h7.3c2.5,0,4.4,0.5,5.7,1.6
				c1.2,1.1,1.9,2.8,1.9,5.1v17.9c0,2.3-0.6,4-1.9,5.1c-1.2,1.1-3.1,1.7-5.7,1.7h-7.3c-2.5,0-4.4-0.6-5.6-1.7
				C277.2,35.7,276.6,34,276.6,31.8z M292.5,12.3h-9.6c-0.4,0-0.6,0.2-0.6,0.6v20c0,0.4,0.2,0.6,0.6,0.6h9.6c0.4,0,0.6-0.2,0.6-0.6
				v-20C293.1,12.5,292.9,12.3,292.5,12.3z"/>
			<path class="st0" d="M328.9,7.6c1.3,0,2.2,0.3,2.7,0.8c0.5,0.5,0.8,1.4,0.8,2.6v27H327V14.5h1l-7.5,14.5h-3.4l-7-14h0.9V38h-5
				V7.6h3.1c0.9,0,1.6,0.1,2,0.4c0.4,0.3,0.8,0.8,1.1,1.5l7.7,14.6h-1.2l8.6-16.5H328.9z"/>
			<path class="st0" d="M345.8,38h-5.7V7.6l12.8-0.2c2.6-0.1,4.5,0.5,5.8,1.7c1.3,1.2,2,3,2,5.3v5.7c0,1.4-0.3,2.7-0.9,3.7
				c-0.6,1.1-1.4,1.9-2.6,2.5c-1.2,0.6-2.6,0.9-4.3,0.9h-8l0.9-1V38z M345.8,11.4v11.8l-0.8-0.9h9.3c0.4,0,0.7-0.2,0.7-0.6V13
				c0-0.4-0.2-0.6-0.7-0.6H345L345.8,11.4z"/>
			<path class="st0" d="M387.6,38H382l-1.7-7.8l0.6,0.5h-12l0.6-0.5l-1.9,7.8h-5.3l6.7-25.4c0.4-1.4,0.8-2.4,1.2-3.2
				c0.4-0.8,1-1.3,1.8-1.6c0.8-0.3,1.8-0.4,3.2-0.4l5.7,0.2L387.6,38z M373.8,13l-3.4,13.3l-0.4-0.5h9.9l-0.4,0.5l-3.1-13.9h-2.1
				c-0.2,0-0.3,0-0.4,0.1C373.9,12.7,373.8,12.8,373.8,13z"/>
			<path class="st0" d="M397.4,20.2h5.8c2.6,0,4.5,0.6,5.8,1.8c1.3,1.2,2,2.9,2,5.2v4c0,2.3-0.7,4.1-2,5.3c-1.3,1.2-3.3,1.8-5.8,1.7
				L391.7,38v-4.9h13c0.4,0,0.6-0.2,0.6-0.7V26c0-0.4-0.2-0.7-0.6-0.7h-5.8c-2.6,0-4.5-0.6-5.8-1.8c-1.3-1.2-2-2.9-2-5.2v-3.8
				c0-2.3,0.7-4,2-5.3c1.3-1.2,3.3-1.8,5.8-1.8l11.2,0.2v4.9h-12.6c-0.4,0-0.6,0.2-0.6,0.7v6.4C396.8,20,397,20.2,397.4,20.2z"/>
			<path class="st0" d="M422,20.2h5.8c2.6,0,4.5,0.6,5.8,1.8c1.3,1.2,2,2.9,2,5.2v4c0,2.3-0.7,4.1-2,5.3c-1.3,1.2-3.3,1.8-5.8,1.7
				L416.2,38v-4.9h13c0.4,0,0.6-0.2,0.6-0.7V26c0-0.4-0.2-0.7-0.6-0.7h-5.8c-2.6,0-4.5-0.6-5.8-1.8c-1.3-1.2-2-2.9-2-5.2v-3.8
				c0-2.3,0.7-4,2-5.3c1.3-1.2,3.3-1.8,5.8-1.8l11.2,0.2v4.9H422c-0.4,0-0.6,0.2-0.6,0.7v6.4C421.4,20,421.6,20.2,422,20.2z"/>
		</g>
	</g>
	<g>
		<path class="st1" d="M130.6,78.1h-14.3V52.1h14.1v2.4h-11.9l0.5-0.5v10.2l-0.5-0.5h11.2V66h-11.2l0.5-0.5v10.7l-0.5-0.5h12.1V78.1
			z"/>
		<path class="st1" d="M148.9,64.5c1,0,1.8,0.1,2.3,0.3c0.5,0.2,1,0.6,1.3,1.1c0.4,0.5,0.8,1.2,1.2,2.2l5.3,10.1h-3l-6-11.7
			c0-0.1-0.1-0.2-0.1-0.3c-0.1,0-0.2-0.1-0.3-0.1h-2.8c-0.1,0-0.2,0-0.3,0.1c-0.1,0-0.1,0.1-0.2,0.3l-5.9,11.7h-2.8l5.2-10.1
			c0.4-0.7,0.7-1.2,0.9-1.7c0.2-0.5,0.5-0.8,0.8-1.1c0.3-0.3,0.7-0.5,1.2-0.6s1.1-0.2,1.9-0.2H148.9z M150.3,63.4l5.5-11.3h2.8
			l-4.8,9.7c-0.4,0.7-0.7,1.3-0.9,1.7c-0.2,0.5-0.5,0.8-0.8,1.1c-0.3,0.3-0.7,0.4-1.2,0.6c-0.5,0.1-1.1,0.2-1.9,0.2h-1.2
			c-1,0-1.8-0.1-2.4-0.3c-0.6-0.2-1-0.6-1.3-1.1c-0.3-0.5-0.7-1.2-1.1-2.1l-4.8-9.7h3l5.5,11.4c0.1,0.1,0.1,0.2,0.2,0.2
			c0.1,0.1,0.2,0.1,0.3,0.1h2.8C150,63.7,150.2,63.6,150.3,63.4z"/>
		<path class="st1" d="M169.9,78.1h-2.7V52.1L178,52c1.7-0.1,3,0.3,3.9,1.1c0.8,0.8,1.3,2,1.3,3.7V63c0,1.1-0.2,2-0.6,2.7
			c-0.4,0.7-0.9,1.2-1.7,1.6c-0.8,0.3-1.7,0.5-2.9,0.5h-8.9l0.7-0.6L169.9,78.1z M169.8,53.7V66l-0.5-0.6h10.5
			c0.3,0,0.5-0.2,0.5-0.5V54.8c0-0.4-0.2-0.5-0.5-0.5h-10.5L169.8,53.7z"/>
		<path class="st1" d="M205.4,75.8v2.4h-12.7V52.1h2.7v24.3l-0.6-0.6H205.4z"/>
		<path class="st1" d="M212.9,74.1v-18c0-1.6,0.4-2.7,1.1-3.3c0.8-0.6,2-0.9,3.6-0.9h7.8c1.6,0,2.8,0.3,3.6,0.9
			c0.8,0.6,1.1,1.7,1.1,3.3v18c0,1.6-0.4,2.7-1.1,3.3c-0.8,0.6-2,1-3.6,1h-7.8c-1.6,0-2.8-0.3-3.6-1
			C213.3,76.8,212.9,75.7,212.9,74.1z M227.1,54.3h-10.9c-0.2,0-0.4,0.1-0.4,0.4v20.9c0,0.2,0.1,0.4,0.4,0.4h10.9
			c0.2,0,0.4-0.1,0.4-0.4V54.7C227.4,54.4,227.3,54.3,227.1,54.3z"/>
		<path class="st1" d="M244,78.1h-2.7V52.1l10.9-0.1c1.7-0.1,3,0.3,3.9,1.1c0.8,0.8,1.3,2,1.3,3.7v5.7c0,1.6-0.4,2.7-1.1,3.5
			c-0.8,0.8-1.9,1.2-3.5,1.3l0-0.6c0.6,0.1,1.1,0.4,1.4,0.9c0.3,0.4,0.6,1.1,0.9,2l3,8.7h-2.8l-3.6-10.5c-0.1-0.2-0.2-0.3-0.2-0.3
			c-0.1-0.1-0.2-0.1-0.5-0.1h-7.8l0.7-0.6L244,78.1z M243.9,53.7v11.8l-0.5-0.6h10.5c0.4,0,0.5-0.2,0.5-0.5v-9.6
			c0-0.4-0.2-0.5-0.5-0.5h-10.5L243.9,53.7z"/>
		<path class="st1" d="M282.3,78.1H268V52.1h14.1v2.4h-11.9l0.5-0.5v10.2l-0.5-0.5h11.2V66h-11.2l0.5-0.5v10.7l-0.5-0.5h12.1V78.1z"
			/>
		<path class="st1" d="M294.8,78.1H292V52.1L303,52c1.7-0.1,3,0.3,3.9,1.1c0.8,0.8,1.3,2,1.3,3.7v5.7c0,1.6-0.4,2.7-1.1,3.5
			c-0.8,0.8-1.9,1.2-3.5,1.3l0-0.6c0.6,0.1,1.1,0.4,1.4,0.9c0.3,0.4,0.6,1.1,0.9,2l3,8.7h-2.8l-3.6-10.5c-0.1-0.2-0.2-0.3-0.2-0.3
			c-0.1-0.1-0.2-0.1-0.5-0.1H294l0.7-0.6L294.8,78.1z M294.8,53.7v11.8l-0.5-0.6h10.5c0.4,0,0.5-0.2,0.5-0.5v-9.6
			c0-0.4-0.2-0.5-0.5-0.5h-10.5L294.8,53.7z"/>
	</g>
	<g>
		<g>
			<path class="st2" d="M15.9,56.5c0.2-2-0.6-4-2.1-5.3L5.5,44c0.3,8.9,3.7,17,9.2,23.3L15.9,56.5z"/>
			<path class="st2" d="M56.5,69.6c-0.2,0-0.4,0-0.6,0c-1.8,0-3.5,0.8-4.7,2.1L44,80c8.9-0.3,17-3.7,23.3-9.2L56.5,69.6z"/>
			<path class="st2" d="M29,15.9c0.2,0,0.4,0,0.6,0c1.8,0,3.5-0.8,4.7-2.1l7.1-8.2c-8.9,0.3-17,3.7-23.3,9.2L29,15.9z"/>
			<path class="st2" d="M69.6,29c-0.2,2,0.6,4,2.1,5.3l8.2,7.1c-0.3-8.9-3.7-17-9.2-23.3L69.6,29z"/>
			<path class="st3" d="M41.9,5.1l1.9-2.2c0.8-0.9,0.2-2.3-1-2.3c0,0,0,0,0,0C31.6,0.5,21.4,4.9,13.8,12c-0.9,0.8-0.4,2.3,0.8,2.4
				l2.9,0.3c0.4,0,0.8-0.1,1.1-0.3C24.7,9.2,32.4,6,40.9,5.6C41.3,5.5,41.6,5.4,41.9,5.1z"/>
			<path class="st3" d="M43.6,80.4l-2,2.3c-0.8,0.9-0.2,2.3,1,2.3c0,0,0,0,0,0c11.2,0,21.4-4.4,28.9-11.5c0.9-0.8,0.4-2.3-0.8-2.4
				l-2.9-0.3c-0.4,0-0.8,0.1-1.1,0.3c-6.1,5.1-13.8,8.4-22.2,8.8C44.2,80,43.9,80.1,43.6,80.4z"/>
			<path class="st3" d="M80.4,41.9l2.3,2c0.9,0.8,2.3,0.2,2.3-1c0,0,0,0,0,0c0-11.2-4.4-21.4-11.5-28.9c-0.8-0.9-2.3-0.4-2.4,0.8
				l-0.3,2.9c0,0.4,0.1,0.8,0.3,1.1c5.1,6.1,8.4,13.8,8.8,22.2C80,41.2,80.1,41.6,80.4,41.9z"/>
			<path class="st3" d="M5.1,43.6l-2.2-1.9c-0.9-0.8-2.3-0.2-2.3,1c0,0,0,0,0,0c0,11.2,4.4,21.4,11.5,28.9c0.8,0.9,2.3,0.4,2.4-0.8
				l0.3-2.9c0-0.4-0.1-0.8-0.3-1.1C9.2,60.8,6,53.1,5.6,44.6C5.5,44.2,5.4,43.9,5.1,43.6z"/>
		</g>
		<path class="st0" d="M84.3,57.1l-18.5-16c-3.7-3.2-5.7-8.1-5.2-13l2.5-24.3C63.4,1.6,61.6,0,59.7,0c-0.9,0-1.9,0.4-2.6,1.2
			l-16,18.5c-2.9,3.4-7.1,5.2-11.5,5.2c-0.5,0-1,0-1.6-0.1L3.8,22.3c-0.1,0-0.3,0-0.4,0c-3.1,0-4.7,3.9-2.2,6.1l18.5,16
			c3.7,3.2,5.7,8.1,5.2,13.1l-2.5,24.3c-0.2,2.3,1.6,3.8,3.5,3.8c0.9,0,1.9-0.4,2.6-1.2l16-18.5c2.9-3.4,7.1-5.3,11.5-5.3
			c0.5,0,1,0,1.6,0.1l24.3,2.5c0.1,0,0.3,0,0.4,0C85.2,63.2,86.7,59.2,84.3,57.1z M42.7,52.9c-5.6,0-10.2-4.6-10.2-10.2
			c0-5.6,4.6-10.2,10.2-10.2s10.2,4.6,10.2,10.2C52.9,48.4,48.4,52.9,42.7,52.9z"/>
	</g>
</g>
</svg>
