<?xml version="1.0" encoding="utf-8"?>
<!-- Generator: Adobe Illustrator 27.9.0, SVG Export Plug-In . SVG Version: 6.00 Build 0)  -->
<svg version="1.1" id="Layer_1" xmlns="http://www.w3.org/2000/svg" xmlns:xlink="http://www.w3.org/1999/xlink" x="0px" y="0px"
	 viewBox="0 0 274.5 72.8" style="enable-background:new 0 0 274.5 72.8;" xml:space="preserve">
<style type="text/css">
	.st0{fill:#FFFFFF;}
	.st1{fill:#FF006A;}
</style>
<g>
	<g>
		<g>
			<path class="st0" d="M58.9,37.4c0,1.5-0.1,2.9-0.4,4.3c-0.1-0.1-0.2-0.1-0.3-0.2c-0.6-0.4-1.3-0.8-2-1c0.2-1,0.2-2,0.2-3.1
				c0-7.3-4.1-13.7-10.1-16.9c0.2-0.8,0.3-1.6,0.3-2.5c0-0.1,0-0.1,0-0.2c2.2,1,4.2,2.5,6,4.2C56.7,26.2,58.9,31.7,58.9,37.4z"/>
			<path class="st0" d="M49,55.4c0.1,0,0.1,0.1,0.2,0.1c-3.5,2.3-7.6,3.6-11.9,3.6c-4.3,0-8.4-1.2-11.9-3.5c0.1-0.1,0.2-0.1,0.3-0.2
				c0.6-0.5,1.2-1,1.6-1.6c2.9,1.8,6.3,2.8,10,2.8c3.6,0,7.1-1,10-2.8C47.7,54.4,48.3,54.9,49,55.4z"/>
			<g>
				<path class="st1" d="M75.4,48l0.4,0.2c-0.1,0.3-0.2,0.6-0.2,0.8l-0.8,1.2c-0.1,0.1-2.7,3.7-7,3.4c-3.3-0.2-5.3-2.5-6-3.4
					c0.4-1.8,0.2-3.7-0.6-5.3c0.7-2.3,1.1-4.8,1.1-7.4c0-11-7.1-20.3-17-23.7c-0.8-1.3-2-2.3-3.4-3v0c-0.3-1-0.8-4.3,1.3-7.3
					c1.2-1.7,2.8-2.5,4.1-3c0.6,5.1,2.3,8.6,5.1,10.3c2.5,1.6,5.2,1.5,7.5,1.4c2.4-0.1,3.9-0.1,4.8,1.1c0.8,1.1,0.5,2.5,0.1,4.1
					c-0.4,2-1,4.2,0.5,6.3c1.2,1.8,3.1,2.2,4.6,2.5c1.3,0.3,2.1,0.5,2.4,1.2c0.5,1.1-0.8,2.8-2.2,4.5c-1.8,2.3-3.8,4.8-3.4,7.8
					C67,42.9,69.8,45.6,75.4,48z"/>
				<path class="st1" d="M63,60.9c0.3,0.9,0.4,1.8,0.4,2.6c-4.2-1.6-7.8-1.7-10.5-0.2c-2.6,1.4-3.8,3.8-4.9,5.9
					c-1.1,2.1-1.9,3.4-3.3,3.6c-1.3,0.2-2.4-0.8-3.6-2c-1.5-1.4-3.2-2.9-5.7-2.7C33.3,68.4,32,69.8,31,71c-0.9,1-1.5,1.6-2.2,1.5
					c-1.2-0.1-2-2-2.9-4.1c-1.1-2.7-2.3-5.7-5.1-6.8c-2.7-1.1-6.1-0.2-10.3,2.7c-0.2-1.2-0.1-2.7,0.6-4.1c1.4-3,4.2-4.1,5.3-4.4
					c1.3,0.9,2.9,1.3,4.5,1.3c0.3,0,0.6,0,0.9-0.1c4.3,3.4,9.7,5.5,15.6,5.5c6,0,11.5-2.1,15.8-5.7c0.2,0,0.3,0,0.5,0
					c1.4,0,2.9-0.4,4.1-1.1C58.7,56.1,61.8,57.5,63,60.9z"/>
				<path class="st1" d="M34.4,3.8c1.7,2.8,1,5.8,0.6,6.8c-1.3,0.5-2.4,1.4-3.2,2.4c-11.2,2.5-19.5,12.5-19.5,24.4
					c0,2.6,0.4,5,1.1,7.3c-0.8,1.6-1.1,3.5-0.9,5.2c-0.7,0.8-3.1,3.2-6.7,3.1C3,53,0.9,51.5,0,50.6c4.9-3.7,7.4-7.5,7.3-11.2
					c-0.1-2.9-1.6-5.1-3-7.1c-1.4-2-2.2-3.2-1.7-4.6C3.1,26.5,4.4,26,6,25.4c1.9-0.7,4-1.5,4.9-3.9c0.8-2,0.1-3.8-0.5-5.2
					c-0.5-1.2-0.8-2-0.4-2.7c0.7-1,2.7-0.9,4.9-0.7c2.9,0.2,6.1,0.5,8.4-1.5c2.4-2,3.1-5.8,2.1-11.5l2,0C27.8,0,32.1,0.1,34.4,3.8z"
					/>
			</g>
			<path class="st0" d="M30,18.5c0,0.4,0.1,0.8,0.1,1.2c-7,2.8-11.9,9.7-11.9,17.7c0,1.1,0.1,2.2,0.3,3.2c-0.8,0.2-1.6,0.6-2.3,1.1
				c-0.3-1.4-0.4-2.9-0.4-4.3c0-5.8,2.3-11.2,6.3-15.3c2.3-2.3,5.1-4,8.1-5.1C30,17.5,29.9,18,30,18.5z"/>
		</g>
		<path class="st0" d="M37.9,30c4.1,0,7.4,3.3,7.4,7.4s-3.3,7.4-7.4,7.4c-4.1,0-7.4-3.3-7.4-7.4S33.8,30,37.9,30z"/>
	</g>
	<g>
		<g>
			<path class="st0" d="M109.6,20.3c0.7-1.2,1.4-2.3,2.1-3.4c1.7-2.7,3.4-5.4,5.1-8.2c0.1-0.2,0.3-0.3,0.5-0.3c1.6,0,3.3,0,4.9,0
				c0,0,0.1,0,0.2,0c0,8.5,0,16.9,0,25.4c-1.7,0-3.1-0.6-4.3-1.8c-1.2-1.2-1.7-2.7-1.7-4.3c0-3,0.1-6,0.2-9
				c-0.1,0.1-0.2,0.3-0.3,0.4c-1.7,2.6-3.4,5.3-5.1,7.9c-0.3,0.4-0.6,0.7-1.1,0.6c-0.6-0.1-1.3,0.1-1.7-0.1
				c-0.4-0.2-0.6-0.9-0.9-1.4c-1.4-2.3-2.9-4.5-4.3-6.8c-0.1-0.2-0.3-0.4-0.5-0.5c0,0.8,0.1,1.6,0.1,2.4c0,2.3,0.1,4.6,0.1,6.9
				c-0.1,3.1-2.7,5.5-5.8,5.6c0,0-0.1,0-0.2,0c0-8.5,0-16.9,0-25.4c0.2,0,0.3,0,0.5,0c1.5,0,3.1,0,4.6,0c0.3,0,0.5,0.1,0.7,0.4
				c2.2,3.7,4.5,7.3,6.8,11C109.4,20,109.5,20.1,109.6,20.3z"/>
			<path class="st0" d="M162,33.8c0-8.4,0-16.9,0-25.4c0.2,0,0.4,0,0.5,0c3.5,0,7,0,10.4,0c4.1,0.1,7.6,1.6,10.1,5
				c1.8,2.6,2.4,5.6,2.2,8.7c-0.1,2.6-0.9,5-2.4,7c-2.1,2.8-4.9,4.4-8.3,4.6C170.4,34,166.3,33.8,162,33.8z M168.2,28.4
				c1.7,0,3.4,0.1,5,0c2.3-0.1,4.1-1.3,5.1-3.4c1-2.2,1.1-4.5,0.3-6.8c-0.9-2.6-2.8-4.2-5.6-4.3c-1.6-0.1-3.1,0-4.7,0
				c0,0-0.1,0-0.2,0.1C168.2,18.8,168.2,23.6,168.2,28.4z"/>
			<path class="st0" d="M222.7,33.9c0-8.5,0-16.9,0-25.4c0.2,0,0.3,0,0.5,0c3.7,0,7.5,0,11.2,0c3.6,0.1,6.3,1.6,7.8,4.9
				c1.7,3.8,0.1,8.4-3.6,10.5c-0.1,0.1-0.2,0.1-0.4,0.2c1.9,3.3,3.7,6.5,5.6,9.8c-3.8,0.3-7.2-0.2-9.5-4.4c-0.8-1.4-1.5-2.8-2.3-4.1
				c-0.1-0.1-0.2-0.3-0.4-0.3c-1,0-2,0-3.1,0c0,1,0,2,0,2.9c0,2-0.8,3.7-2.4,4.9C225.2,33.5,223.9,33.9,222.7,33.9z M228.6,20.2
				c1.9,0,3.8,0,5.6,0c0.9,0,1.6-0.5,2.1-1.2c1.5-2.1,0.3-5-2.3-5.3c-1.7-0.2-3.4-0.1-5-0.1c-0.3,0-0.3,0.2-0.3,0.5
				c0,1.1,0,2.2,0,3.3C228.6,18.3,228.6,19.2,228.6,20.2z"/>
			<path class="st0" d="M274.5,33.9c-3.2,0.3-6.3-1.4-7.7-4.2c-0.2-0.5-0.5-0.7-1.1-0.7c-2.7,0-5.4,0-8.1,0c-0.4,0-0.6,0.1-0.7,0.5
				c-1.5,2.9-4,4.4-7.3,4.5c-0.1,0-0.2,0-0.4,0c0.4-1,0.8-1.9,1.1-2.9c2.9-7.4,5.8-14.8,8.8-22.2c0.1-0.3,0.3-0.4,0.6-0.4
				c1.5,0,2.9,0,4.4,0c0.4,0,0.5,0.1,0.7,0.5c2.7,6.8,5.4,13.7,8,20.5C273.3,30.9,273.9,32.4,274.5,33.9z M261.8,16.1
				c-1,2.7-1.9,5.4-2.9,8.2c2,0,3.8,0,5.8,0C263.7,21.5,262.7,18.8,261.8,16.1z"/>
			<path class="st0" d="M154.8,33.9c-1.8,0.1-3.4-0.3-4.9-1.2c-1.3-0.8-2.3-1.9-3-3.3c-0.1-0.3-0.3-0.4-0.6-0.4c-2.8,0-5.7,0-8.5,0
				c-0.4,0-0.5,0.2-0.7,0.5c-1.4,2.9-4.5,4.7-7.6,4.4c0.1-0.2,0.1-0.3,0.2-0.5c3.2-8.2,6.5-16.4,9.7-24.5c0.1-0.3,0.3-0.5,0.7-0.5
				c1.5,0,2.9,0,4.4,0c0.3,0,0.5,0.1,0.6,0.4c3.2,8.2,6.4,16.4,9.7,24.6C154.7,33.6,154.7,33.7,154.8,33.9z M139.2,24.3
				c1.9,0,3.8,0,5.8,0c-1-2.7-1.9-5.5-2.9-8.2C141.1,18.8,140.2,21.5,139.2,24.3z"/>
			<path class="st0" d="M215.5,33.9c-3.3,0.3-6.3-1.5-7.8-4.4c-0.2-0.4-0.4-0.5-0.8-0.5c-2.7,0-5.5,0-8.2,0c-0.4,0-0.7,0.1-0.9,0.5
				c-1.4,2.9-4.6,4.7-7.6,4.4c0.1-0.2,0.1-0.3,0.2-0.5c3.2-8.2,6.5-16.4,9.7-24.5c0.1-0.3,0.3-0.5,0.7-0.4c1.5,0,2.9,0,4.4,0
				c0.3,0,0.4,0.1,0.6,0.4c3.2,8.2,6.5,16.5,9.7,24.7C215.4,33.6,215.5,33.7,215.5,33.9z M199.9,24.3c2,0,3.9,0,5.8,0
				c-1-2.7-1.9-5.4-2.8-8.1C201.9,18.8,200.9,21.5,199.9,24.3z"/>
		</g>
	</g>
	<g>
		<g>
			<path class="st0" d="M98.4,66.6c-0.9,0-1.3-0.4-1.3-1.3V44.3c0-0.9,0.4-1.3,1.3-1.3h12.9c0.9,0,1.3,0.4,1.3,1.3
				c0,0.9-0.4,1.3-1.3,1.3H99.7v7.8h7.4c0.9,0,1.3,0.4,1.3,1.3c0,0.9-0.4,1.3-1.3,1.3h-7.4v8h11.6c0.9,0,1.3,0.4,1.3,1.3
				c0,0.9-0.4,1.3-1.3,1.3H98.4z"/>
			<path class="st0" d="M118.5,66.4c-0.7-0.5-0.8-1.1-0.3-1.8l6.7-9.9l-6.8-9.6c-0.5-0.7-0.4-1.3,0.3-1.8c0.7-0.5,1.3-0.4,1.8,0.3
				l6.4,9l6.5-9c0.5-0.7,1.1-0.8,1.8-0.3c0.7,0.5,0.8,1.1,0.3,1.8l-7,9.7l6.9,9.7c0.5,0.7,0.4,1.3-0.3,1.9c-0.7,0.5-1.3,0.4-1.8-0.3
				l-6.5-9.1l-6.2,9.1C119.9,66.7,119.3,66.8,118.5,66.4z"/>
			<path class="st0" d="M143.8,66.6c-0.9,0-1.3-0.4-1.3-1.3V44.3c0-0.9,0.4-1.3,1.3-1.3h8.3c2.1,0,3.7,0.6,4.8,1.7
				c1.1,1.1,1.7,2.7,1.7,4.9v1.1c0,2.1-0.6,3.7-1.7,4.8c-1.1,1.1-2.7,1.7-4.8,1.7h-7v8.3C145.1,66.2,144.6,66.6,143.8,66.6z
				 M145.1,54.5h7c1.4,0,2.4-0.3,3-0.9c0.6-0.6,0.9-1.6,0.9-3v-1.1c0-1.4-0.3-2.4-0.9-3c-0.6-0.6-1.6-0.9-3-0.9h-7V54.5z"/>
			<path class="st0" d="M166.4,66.6c-0.9,0-1.3-0.4-1.3-1.3V44.3c0-0.9,0.4-1.3,1.3-1.3c0.9,0,1.3,0.4,1.3,1.3V64h10.2
				c0.9,0,1.3,0.4,1.3,1.3c0,0.9-0.4,1.3-1.3,1.3H166.4z"/>
			<path class="st0" d="M191.5,66.6c-2.7,0-4.6-0.6-5.9-1.9c-1.3-1.3-1.9-3.2-1.9-5.9v-8.2c0-2.7,0.6-4.7,1.9-5.9s3.2-1.9,5.9-1.8
				h4.3c2.7,0,4.6,0.6,5.9,1.9c1.3,1.3,1.9,3.2,1.9,5.9v8.1c0,2.7-0.6,4.6-1.9,5.9c-1.3,1.3-3.2,1.9-5.9,1.9H191.5z M191.5,64h4.3
				c1.3,0,2.3-0.2,3.1-0.5c0.8-0.3,1.3-0.9,1.6-1.6c0.3-0.8,0.5-1.8,0.5-3.1v-8.1c0-1.3-0.2-2.3-0.5-3.1s-0.9-1.3-1.6-1.6
				c-0.8-0.3-1.8-0.5-3.1-0.5h-4.3c-1.3,0-2.3,0.1-3.1,0.5s-1.3,0.8-1.6,1.6c-0.3,0.8-0.5,1.8-0.5,3.1v8.2c0,1.3,0.2,2.3,0.5,3.1
				c0.3,0.8,0.9,1.3,1.6,1.6S190.2,64,191.5,64z"/>
			<path class="st0" d="M226.9,66.7c-0.3,0.2-0.7,0.3-1,0.2c-0.3-0.1-0.6-0.3-0.8-0.6l-5.6-9.2H214v8.3c0,0.9-0.4,1.3-1.3,1.3
				c-0.9,0-1.3-0.4-1.3-1.3V44.3c0-0.9,0.4-1.3,1.3-1.3h8.3c2.1,0,3.7,0.6,4.8,1.7c1.1,1.1,1.7,2.7,1.7,4.9v1.1
				c0,1.8-0.4,3.3-1.3,4.4c-0.9,1.1-2.1,1.8-3.7,2l4.8,8C227.8,65.7,227.6,66.2,226.9,66.7z M214,54.5h7c1.4,0,2.4-0.3,3-0.9
				c0.6-0.6,0.9-1.6,0.9-3v-1.1c0-1.4-0.3-2.4-0.9-3c-0.6-0.6-1.6-0.9-3-0.9h-7V54.5z"/>
			<path class="st0" d="M235.9,66.6c-0.9,0-1.3-0.4-1.3-1.3V44.3c0-0.9,0.4-1.3,1.3-1.3h12.9c0.9,0,1.3,0.4,1.3,1.3
				c0,0.9-0.4,1.3-1.3,1.3h-11.6v7.8h7.4c0.9,0,1.3,0.4,1.3,1.3c0,0.9-0.4,1.3-1.3,1.3h-7.4v8h11.6c0.9,0,1.3,0.4,1.3,1.3
				c0,0.9-0.4,1.3-1.3,1.3H235.9z"/>
			<path class="st0" d="M272.5,66.7c-0.3,0.2-0.7,0.3-1,0.2c-0.3-0.1-0.6-0.3-0.8-0.6l-5.6-9.2h-5.5v8.3c0,0.9-0.4,1.3-1.3,1.3
				c-0.9,0-1.3-0.4-1.3-1.3V44.3c0-0.9,0.4-1.3,1.3-1.3h8.3c2.1,0,3.7,0.6,4.8,1.7c1.1,1.1,1.7,2.7,1.7,4.9v1.1
				c0,1.8-0.4,3.3-1.3,4.4c-0.9,1.1-2.1,1.8-3.7,2l4.8,8C273.3,65.7,273.2,66.2,272.5,66.7z M259.6,54.5h7c1.4,0,2.4-0.3,3-0.9
				c0.6-0.6,0.9-1.6,0.9-3v-1.1c0-1.4-0.3-2.4-0.9-3c-0.6-0.6-1.6-0.9-3-0.9h-7V54.5z"/>
		</g>
	</g>
</g>
</svg>
